Coordinates
version=1
nRows=6
nColumns=36
inDegrees=yes

Units are S.I. units (second, meters, Newtons, ...)
If the header above contains a line with 'inDegrees', this indicates whether rotational values are in degrees (yes) or radians (no).

endheader
time	pelvis_tilt	pelvis_list	pelvis_rotation	pelvis_tx	pelvis_ty	pelvis_tz	hip_flexion_r	hip_adduction_r	hip_rotation_r	knee_angle_r	knee_angle_r_beta	ankle_angle_r	subtalar_angle_r	mtp_angle_r	hip_flexion_l	hip_adduction_l	hip_rotation_l	knee_angle_l	knee_angle_l_beta	ankle_angle_l	subtalar_angle_l	mtp_angle_l	lumbar_extension	lumbar_bending	lumbar_rotation	arm_flex_r	arm_add_r	arm_rot_r	elbow_flex_r	pro_sup_r	arm_flex_l	arm_add_l	arm_rot_l	elbow_flex_l	pro_sup_l
      1.48750000	     -0.74567878	      0.00162635	      2.19809175	     -0.88718076	      1.24847749	     -0.07550860	     -1.42414148	     -0.83968199	      2.25259466	      2.60226642	      0.04541812	      3.23983936	     -6.92511695	     -7.49999987	     -0.82729868	     -1.39336778	      5.31185003	      2.97904376	      0.05199412	      5.47186842	     -0.94619043	     -7.49999987	     -9.93004534	      1.12578821	     -3.57442355	      8.23948266	     -6.64933539	     11.77632930	     36.64083373	     74.92009492	      5.50486437	    -10.61829148	      8.15240876	     46.97391898	     82.77248589
      1.49166670	     -0.77944693	      0.00499263	      2.20872412	     -0.88556174	      1.24722289	     -0.07648142	     -1.33178414	     -0.83631766	      2.36878644	      2.73942532	      0.04781199	      3.28865974	     -7.17577811	     -7.49999987	     -0.71349298	     -1.38396854	      5.55459888	      3.17249164	      0.05537042	      5.50707995	     -1.30613872	     -7.49999987	     -9.98588327	      1.12713603	     -3.57555441	      8.37922669	     -6.64512005	     11.73061166	     37.02259266	     74.40453623	      5.62360891	    -10.67719638	      8.33869161	     47.55034831	     82.11229414
      1.49583330	     -0.98474104	      0.02143191	      2.21220511	     -0.88640737	      1.24524663	     -0.07594354	     -0.98117149	     -0.84519238	      2.55575198	      3.01956818	      0.05270141	      3.41476390	     -7.56247903	     -7.49999987	     -0.32207635	     -1.35443960	      5.65842129	      3.49781686	      0.06104842	      5.69018824	     -1.51212105	     -7.49999987	     -9.85938312	      1.08946515	     -3.57448402	      8.57794159	     -6.61804317	     11.29063472	     37.07592178	     77.75734813	      5.77999577	    -10.66696492	      7.94237203	     47.91238869	     86.57477418
      1.50000000	     -1.67269167	      0.00783949	      2.20218343	     -0.88725414	      1.24191850	     -0.07630487	     -0.00758496	     -0.87780831	      2.40906618	      3.50841882	      0.06123346	      3.92611087	     -7.27165868	     -7.49999987	      0.67875903	     -1.30970417	      5.57434699	      3.97834472	      0.06943521	      6.12842033	     -1.40715891	     -7.49999987	     -9.16653620	      1.09184274	     -3.50631205	      8.19395641	     -6.77450315	     11.14456767	     38.21421136	     76.75017478	      5.52759827	    -10.67990942	      7.91092875	     48.94781338	     85.26625850
      1.50416670	     -1.32558611	      0.06482604	      2.26123433	     -0.88750398	      1.24806315	     -0.07622363	     -0.31362446	     -0.91080124	      2.55111994	      3.64979232	      0.06370089	      3.60193493	     -7.90740144	     -7.49999987	      0.46409949	     -1.24464099	      5.86835119	      4.21780936	      0.07361466	      5.95986807	     -1.92105470	     -7.49999987	     -9.75524562	      1.09977650	     -3.64448222	      8.88439996	     -6.58585260	     10.98923414	     37.71559661	     76.81677453	      6.12259977	    -10.67842625	      8.04439921	     48.66969004	     85.38285215
      1.50833330	     -1.85303194	      0.06750033	      2.20543986	     -0.88787517	      1.24558603	     -0.07684080	      0.45633702	     -0.95820944	      2.68096428	      3.97978151	      0.06946029	      4.07832585	     -7.95023659	     -7.49999987	      1.26127159	     -1.18359215	      5.74696021	      4.64529132	      0.08107563	      6.24787687	     -1.84936337	     -7.49999987	     -9.26908722	      1.12689227	     -3.61995557	      8.83284216	     -6.65945218	     10.92707681	     38.31090767	     76.36432999	      6.15088470	    -10.64188874	      8.06594792	     49.21245970	     84.76217667
